<mxfile host="Electron" modified="2023-05-19T01:41:51.259Z" agent="Mozilla/5.0 (Windows NT 10.0; Win64; x64) AppleWebKit/537.36 (KHTML, like Gecko) draw.io/21.2.8 Chrome/112.0.5615.165 Electron/24.2.0 Safari/537.36" etag="U2GyYZGe5qOCQBTEsqLU" version="21.2.8" type="device">
  <diagram name="Page-1" id="JpN1VEU_4ETn7FfphPgQ">
    <mxGraphModel dx="792" dy="845" grid="1" gridSize="10" guides="1" tooltips="1" connect="1" arrows="1" fold="1" page="1" pageScale="1" pageWidth="850" pageHeight="1100" math="0" shadow="0">
      <root>
        <mxCell id="0" />
        <mxCell id="1" parent="0" />
        <mxCell id="7L0QcVBkdVUQi4h4Xfb1-6" style="edgeStyle=orthogonalEdgeStyle;rounded=0;orthogonalLoop=1;jettySize=auto;html=1;" edge="1" parent="1" source="7L0QcVBkdVUQi4h4Xfb1-1" target="7L0QcVBkdVUQi4h4Xfb1-4">
          <mxGeometry relative="1" as="geometry" />
        </mxCell>
        <mxCell id="7L0QcVBkdVUQi4h4Xfb1-1" value="SAM Template (YAML)" style="sketch=0;outlineConnect=0;fontColor=#232F3E;gradientColor=none;fillColor=#B0084D;strokeColor=none;dashed=0;verticalLabelPosition=bottom;verticalAlign=top;align=center;html=1;fontSize=12;fontStyle=0;aspect=fixed;pointerEvents=1;shape=mxgraph.aws4.template;" vertex="1" parent="1">
          <mxGeometry x="290" y="270" width="65" height="78" as="geometry" />
        </mxCell>
        <mxCell id="7L0QcVBkdVUQi4h4Xfb1-3" value="Application Code" style="sketch=0;outlineConnect=0;fontColor=#232F3E;gradientColor=none;fillColor=#232F3D;strokeColor=none;dashed=0;verticalLabelPosition=bottom;verticalAlign=top;align=center;html=1;fontSize=12;fontStyle=0;aspect=fixed;pointerEvents=1;shape=mxgraph.aws4.source_code;" vertex="1" parent="1">
          <mxGeometry x="294" y="430" width="57" height="78" as="geometry" />
        </mxCell>
        <mxCell id="7L0QcVBkdVUQi4h4Xfb1-12" style="edgeStyle=orthogonalEdgeStyle;rounded=0;orthogonalLoop=1;jettySize=auto;html=1;" edge="1" parent="1" source="7L0QcVBkdVUQi4h4Xfb1-4" target="7L0QcVBkdVUQi4h4Xfb1-10">
          <mxGeometry relative="1" as="geometry" />
        </mxCell>
        <mxCell id="7L0QcVBkdVUQi4h4Xfb1-4" value="CloudFormation Template (YAML)" style="sketch=0;outlineConnect=0;fontColor=#232F3E;gradientColor=none;fillColor=#B0084D;strokeColor=none;dashed=0;verticalLabelPosition=bottom;verticalAlign=top;align=center;html=1;fontSize=12;fontStyle=0;aspect=fixed;pointerEvents=1;shape=mxgraph.aws4.template;" vertex="1" parent="1">
          <mxGeometry x="620" y="270" width="65" height="78" as="geometry" />
        </mxCell>
        <mxCell id="7L0QcVBkdVUQi4h4Xfb1-5" value="Application Code" style="sketch=0;outlineConnect=0;fontColor=#232F3E;gradientColor=none;fillColor=#232F3D;strokeColor=none;dashed=0;verticalLabelPosition=bottom;verticalAlign=top;align=center;html=1;fontSize=12;fontStyle=0;aspect=fixed;pointerEvents=1;shape=mxgraph.aws4.source_code;" vertex="1" parent="1">
          <mxGeometry x="624" y="430" width="57" height="78" as="geometry" />
        </mxCell>
        <mxCell id="7L0QcVBkdVUQi4h4Xfb1-7" value="Transform" style="text;html=1;align=center;verticalAlign=middle;resizable=0;points=[];autosize=1;strokeColor=none;fillColor=none;" vertex="1" parent="1">
          <mxGeometry x="450" y="280" width="80" height="30" as="geometry" />
        </mxCell>
        <mxCell id="7L0QcVBkdVUQi4h4Xfb1-8" value="+" style="text;html=1;align=center;verticalAlign=middle;resizable=0;points=[];autosize=1;strokeColor=none;fillColor=none;fontSize=30;fontStyle=1" vertex="1" parent="1">
          <mxGeometry x="302.5" y="380" width="40" height="50" as="geometry" />
        </mxCell>
        <mxCell id="7L0QcVBkdVUQi4h4Xfb1-9" value="+" style="text;html=1;align=center;verticalAlign=middle;resizable=0;points=[];autosize=1;strokeColor=none;fillColor=none;fontSize=30;fontStyle=1" vertex="1" parent="1">
          <mxGeometry x="632.5" y="380" width="40" height="50" as="geometry" />
        </mxCell>
        <mxCell id="7L0QcVBkdVUQi4h4Xfb1-15" style="edgeStyle=orthogonalEdgeStyle;rounded=0;orthogonalLoop=1;jettySize=auto;html=1;entryX=0;entryY=0.5;entryDx=0;entryDy=0;entryPerimeter=0;" edge="1" parent="1" source="7L0QcVBkdVUQi4h4Xfb1-10" target="7L0QcVBkdVUQi4h4Xfb1-14">
          <mxGeometry relative="1" as="geometry" />
        </mxCell>
        <mxCell id="7L0QcVBkdVUQi4h4Xfb1-10" value="S3 Bucket" style="sketch=0;outlineConnect=0;fontColor=#232F3E;gradientColor=none;fillColor=#3F8624;strokeColor=none;dashed=0;verticalLabelPosition=bottom;verticalAlign=top;align=center;html=1;fontSize=12;fontStyle=0;aspect=fixed;pointerEvents=1;shape=mxgraph.aws4.bucket;" vertex="1" parent="1">
          <mxGeometry x="960" y="270" width="75" height="78" as="geometry" />
        </mxCell>
        <mxCell id="7L0QcVBkdVUQi4h4Xfb1-11" value="Build the application locally (sam build)" style="text;html=1;align=center;verticalAlign=middle;resizable=0;points=[];autosize=1;strokeColor=none;fillColor=none;fontStyle=1" vertex="1" parent="1">
          <mxGeometry x="365" y="220" width="250" height="30" as="geometry" />
        </mxCell>
        <mxCell id="7L0QcVBkdVUQi4h4Xfb1-13" value="Zip and upload" style="text;html=1;align=center;verticalAlign=middle;resizable=0;points=[];autosize=1;strokeColor=none;fillColor=none;" vertex="1" parent="1">
          <mxGeometry x="780" y="280" width="100" height="30" as="geometry" />
        </mxCell>
        <mxCell id="7L0QcVBkdVUQi4h4Xfb1-22" style="edgeStyle=orthogonalEdgeStyle;rounded=0;orthogonalLoop=1;jettySize=auto;html=1;" edge="1" parent="1" source="7L0QcVBkdVUQi4h4Xfb1-14" target="7L0QcVBkdVUQi4h4Xfb1-18">
          <mxGeometry relative="1" as="geometry" />
        </mxCell>
        <mxCell id="7L0QcVBkdVUQi4h4Xfb1-14" value="CloudFormation" style="sketch=0;points=[[0,0,0],[0.25,0,0],[0.5,0,0],[0.75,0,0],[1,0,0],[0,1,0],[0.25,1,0],[0.5,1,0],[0.75,1,0],[1,1,0],[0,0.25,0],[0,0.5,0],[0,0.75,0],[1,0.25,0],[1,0.5,0],[1,0.75,0]];points=[[0,0,0],[0.25,0,0],[0.5,0,0],[0.75,0,0],[1,0,0],[0,1,0],[0.25,1,0],[0.5,1,0],[0.75,1,0],[1,1,0],[0,0.25,0],[0,0.5,0],[0,0.75,0],[1,0.25,0],[1,0.5,0],[1,0.75,0]];outlineConnect=0;fontColor=#232F3E;gradientColor=#F34482;gradientDirection=north;fillColor=#BC1356;strokeColor=#ffffff;dashed=0;verticalLabelPosition=middle;verticalAlign=middle;align=left;html=1;fontSize=12;fontStyle=0;aspect=fixed;shape=mxgraph.aws4.resourceIcon;resIcon=mxgraph.aws4.cloudformation;labelPosition=right;" vertex="1" parent="1">
          <mxGeometry x="1260" y="270" width="78" height="78" as="geometry" />
        </mxCell>
        <mxCell id="7L0QcVBkdVUQi4h4Xfb1-16" value="" style="sketch=0;outlineConnect=0;fontColor=#232F3E;gradientColor=none;fillColor=#B0084D;strokeColor=none;dashed=0;verticalLabelPosition=bottom;verticalAlign=top;align=center;html=1;fontSize=12;fontStyle=0;aspect=fixed;pointerEvents=1;shape=mxgraph.aws4.change_set;" vertex="1" parent="1">
          <mxGeometry x="1110" y="330" width="65" height="78" as="geometry" />
        </mxCell>
        <mxCell id="7L0QcVBkdVUQi4h4Xfb1-17" value="" style="sketch=0;outlineConnect=0;fontColor=#232F3E;gradientColor=none;fillColor=#B0084D;strokeColor=none;dashed=0;verticalLabelPosition=bottom;verticalAlign=top;align=center;html=1;fontSize=12;fontStyle=0;aspect=fixed;pointerEvents=1;shape=mxgraph.aws4.stack;" vertex="1" parent="1">
          <mxGeometry x="1112" y="520" width="78" height="76" as="geometry" />
        </mxCell>
        <mxCell id="7L0QcVBkdVUQi4h4Xfb1-18" value="CloudFormation Stack" style="fillColor=none;strokeColor=#b0084d;dashed=1;verticalAlign=top;fontStyle=0;fontColor=#b0084d;whiteSpace=wrap;html=1;" vertex="1" parent="1">
          <mxGeometry x="1112" y="520" width="374" height="200" as="geometry" />
        </mxCell>
        <mxCell id="7L0QcVBkdVUQi4h4Xfb1-19" value="" style="sketch=0;points=[[0,0,0],[0.25,0,0],[0.5,0,0],[0.75,0,0],[1,0,0],[0,1,0],[0.25,1,0],[0.5,1,0],[0.75,1,0],[1,1,0],[0,0.25,0],[0,0.5,0],[0,0.75,0],[1,0.25,0],[1,0.5,0],[1,0.75,0]];outlineConnect=0;fontColor=#232F3E;gradientColor=#F78E04;gradientDirection=north;fillColor=#D05C17;strokeColor=#ffffff;dashed=0;verticalLabelPosition=bottom;verticalAlign=top;align=center;html=1;fontSize=12;fontStyle=0;aspect=fixed;shape=mxgraph.aws4.resourceIcon;resIcon=mxgraph.aws4.lambda;" vertex="1" parent="1">
          <mxGeometry x="1136" y="618" width="78" height="78" as="geometry" />
        </mxCell>
        <mxCell id="7L0QcVBkdVUQi4h4Xfb1-20" value="" style="sketch=0;points=[[0,0,0],[0.25,0,0],[0.5,0,0],[0.75,0,0],[1,0,0],[0,1,0],[0.25,1,0],[0.5,1,0],[0.75,1,0],[1,1,0],[0,0.25,0],[0,0.5,0],[0,0.75,0],[1,0.25,0],[1,0.5,0],[1,0.75,0]];outlineConnect=0;fontColor=#232F3E;gradientColor=#FF4F8B;gradientDirection=north;fillColor=#BC1356;strokeColor=#ffffff;dashed=0;verticalLabelPosition=bottom;verticalAlign=top;align=center;html=1;fontSize=12;fontStyle=0;aspect=fixed;shape=mxgraph.aws4.resourceIcon;resIcon=mxgraph.aws4.api_gateway;" vertex="1" parent="1">
          <mxGeometry x="1266" y="618" width="78" height="78" as="geometry" />
        </mxCell>
        <mxCell id="7L0QcVBkdVUQi4h4Xfb1-21" value="" style="sketch=0;points=[[0,0,0],[0.25,0,0],[0.5,0,0],[0.75,0,0],[1,0,0],[0,1,0],[0.25,1,0],[0.5,1,0],[0.75,1,0],[1,1,0],[0,0.25,0],[0,0.5,0],[0,0.75,0],[1,0.25,0],[1,0.5,0],[1,0.75,0]];outlineConnect=0;fontColor=#232F3E;gradientColor=#4D72F3;gradientDirection=north;fillColor=#3334B9;strokeColor=#ffffff;dashed=0;verticalLabelPosition=bottom;verticalAlign=top;align=center;html=1;fontSize=12;fontStyle=0;aspect=fixed;shape=mxgraph.aws4.resourceIcon;resIcon=mxgraph.aws4.dynamodb;" vertex="1" parent="1">
          <mxGeometry x="1386" y="618" width="78" height="78" as="geometry" />
        </mxCell>
        <mxCell id="7L0QcVBkdVUQi4h4Xfb1-23" value="Package the application using the following &lt;b&gt;commands&lt;/b&gt;:&lt;br&gt;(&lt;b&gt;sam package&lt;/b&gt; OR &lt;b&gt;aws cloudformation package)&lt;/b&gt;" style="text;html=1;align=center;verticalAlign=middle;resizable=0;points=[];autosize=1;strokeColor=none;fillColor=none;" vertex="1" parent="1">
          <mxGeometry x="662.5" y="215" width="320" height="40" as="geometry" />
        </mxCell>
        <mxCell id="7L0QcVBkdVUQi4h4Xfb1-24" value="Create/Execute ChangeSet" style="text;html=1;align=center;verticalAlign=middle;resizable=0;points=[];autosize=1;strokeColor=none;fillColor=none;" vertex="1" parent="1">
          <mxGeometry x="1057.5" y="270" width="170" height="30" as="geometry" />
        </mxCell>
        <mxCell id="7L0QcVBkdVUQi4h4Xfb1-25" value="Deploy the application using the following&amp;nbsp;&lt;b style=&quot;&quot;&gt;commands&lt;/b&gt;:&lt;br&gt;(&lt;b&gt;sam deploy&amp;nbsp;&lt;/b&gt;OR &lt;b&gt;aws cloudformation deploy)&lt;/b&gt;" style="text;html=1;align=center;verticalAlign=middle;resizable=0;points=[];autosize=1;strokeColor=none;fillColor=none;" vertex="1" parent="1">
          <mxGeometry x="996" y="215" width="310" height="40" as="geometry" />
        </mxCell>
      </root>
    </mxGraphModel>
  </diagram>
</mxfile>
